<?xml version="1.0" encoding="utf-8"?><svg xml:space="preserve" viewBox="0 0 100 100" y="0" x="0" xmlns="http://www.w3.org/2000/svg" id="圖層_1" version="1.1" width="200px" height="200px" xmlns:xlink="http://www.w3.org/1999/xlink" style="width:100%;height:100%;background-size:initial;background-repeat-y:initial;background-repeat-x:initial;background-position-y:initial;background-position-x:initial;background-origin:initial;background-image:initial;background-color:rgb(255, 255, 255);background-clip:initial;background-attachment:initial;animation-play-state:paused" ><g class="ldl-scale" style="transform-origin:50% 50%;transform:rotate(0deg) scale(0.8, 0.8);animation-play-state:paused" ><path stroke-miterlimit="10" stroke-width="3.723" stroke="#333" fill="#e0e0e0" d="M59 59.3v-42c0-5-4-9-9-9s-9 4-9 9v42c-5.1 3.1-8.5 8.6-8.5 15 0 9.7 7.8 17.5 17.5 17.5S67.5 84 67.5 74.3c0-6.4-3.4-12-8.5-15z" style="stroke:rgb(51, 51, 51);fill:rgb(224, 224, 224);animation-play-state:paused" ></path>
<path fill="#c33737" d="M53.5 63.3V29.8c0-1.8-1.5-3.3-3.3-3.3h-.3c-1.8 0-3.3 1.5-3.3 3.3v33.5c-4.6 1.5-8 5.8-8 11 0 6.4 5.1 11.5 11.5 11.5s11.5-5.1 11.5-11.5c-.1-5.2-3.5-9.5-8.1-11z" style="fill:rgb(195, 55, 55);animation-play-state:paused" ></path>
<g style="animation-play-state:paused" ><path d="M60 19.5h6.7" stroke-miterlimit="10" stroke-linecap="round" stroke-width="4" stroke="#333" fill="none" style="stroke:rgb(51, 51, 51);animation-play-state:paused" ></path>
<path d="M60 27.5h6.7" stroke-miterlimit="10" stroke-linecap="round" stroke-width="4" stroke="#333" fill="none" style="stroke:rgb(51, 51, 51);animation-play-state:paused" ></path>
<path d="M60 35.5h6.7" stroke-miterlimit="10" stroke-linecap="round" stroke-width="4" stroke="#333" fill="none" style="stroke:rgb(51, 51, 51);animation-play-state:paused" ></path>
<path d="M60 43.5h6.7" stroke-miterlimit="10" stroke-linecap="round" stroke-width="4" stroke="#333" fill="none" style="stroke:rgb(51, 51, 51);animation-play-state:paused" ></path>
<path d="M60 51.5h6.7" stroke-miterlimit="10" stroke-linecap="round" stroke-width="4" stroke="#333" fill="none" style="stroke:rgb(51, 51, 51);animation-play-state:paused" ></path></g>
<metadata xmlns:d="https://loading.io/stock/" style="animation-play-state:paused" ><d:name style="animation-play-state:paused" >thermometer</d:name>
<d:tags style="animation-play-state:paused" >half,temperature,degree,hot,cold,loading,workload,thermometer,web application</d:tags>
<d:license style="animation-play-state:paused" >pro</d:license>
<d:slug style="animation-play-state:paused" >o874rn</d:slug></metadata></g><!-- generated by https://loading.io/ --></svg>